<mxfile host="app.diagrams.net" modified="2024-04-17T07:28:27.386Z" agent="Mozilla/5.0 (Windows NT 10.0; Win64; x64; rv:125.0) Gecko/20100101 Firefox/125.0" etag="RL4tl9_yv_RKjsSyRC35" version="24.2.5" type="device">
  <diagram name="Page-1" id="bjVycl1NhYAhUDCoDyCF">
    <mxGraphModel dx="1670" dy="943" grid="1" gridSize="10" guides="1" tooltips="1" connect="1" arrows="1" fold="1" page="1" pageScale="1" pageWidth="1100" pageHeight="1700" math="0" shadow="0">
      <root>
        <mxCell id="0" />
        <mxCell id="1" parent="0" />
        <mxCell id="hHR7pFkJkazH_EM8U-UJ-1" value="" style="whiteSpace=wrap;html=1;aspect=fixed;" vertex="1" parent="1">
          <mxGeometry x="110" y="60" width="180" height="180" as="geometry" />
        </mxCell>
        <mxCell id="hHR7pFkJkazH_EM8U-UJ-2" value="&lt;u&gt;(PK) Branch_No&lt;/u&gt;" style="rounded=0;whiteSpace=wrap;html=1;" vertex="1" parent="1">
          <mxGeometry x="110" y="90" width="180" height="30" as="geometry" />
        </mxCell>
        <mxCell id="hHR7pFkJkazH_EM8U-UJ-3" value="Email" style="rounded=0;whiteSpace=wrap;html=1;" vertex="1" parent="1">
          <mxGeometry x="110" y="150" width="180" height="30" as="geometry" />
        </mxCell>
        <mxCell id="hHR7pFkJkazH_EM8U-UJ-4" value="Unit_No" style="rounded=0;whiteSpace=wrap;html=1;" vertex="1" parent="1">
          <mxGeometry x="110" y="180" width="180" height="30" as="geometry" />
        </mxCell>
        <mxCell id="hHR7pFkJkazH_EM8U-UJ-5" value="Street_No" style="rounded=0;whiteSpace=wrap;html=1;" vertex="1" parent="1">
          <mxGeometry x="110" y="210" width="180" height="30" as="geometry" />
        </mxCell>
        <mxCell id="hHR7pFkJkazH_EM8U-UJ-6" value="Street_Name" style="rounded=0;whiteSpace=wrap;html=1;" vertex="1" parent="1">
          <mxGeometry x="110" y="240" width="180" height="30" as="geometry" />
        </mxCell>
        <mxCell id="hHR7pFkJkazH_EM8U-UJ-7" value="Suburb" style="rounded=0;whiteSpace=wrap;html=1;" vertex="1" parent="1">
          <mxGeometry x="110" y="270" width="180" height="30" as="geometry" />
        </mxCell>
        <mxCell id="hHR7pFkJkazH_EM8U-UJ-8" value="Post_Code" style="rounded=0;whiteSpace=wrap;html=1;" vertex="1" parent="1">
          <mxGeometry x="110" y="330" width="180" height="30" as="geometry" />
        </mxCell>
        <mxCell id="hHR7pFkJkazH_EM8U-UJ-9" value="Tel_No" style="rounded=0;whiteSpace=wrap;html=1;" vertex="1" parent="1">
          <mxGeometry x="110" y="120" width="180" height="30" as="geometry" />
        </mxCell>
        <mxCell id="hHR7pFkJkazH_EM8U-UJ-10" value="&lt;b&gt;Branch&lt;/b&gt;" style="rounded=0;whiteSpace=wrap;html=1;" vertex="1" parent="1">
          <mxGeometry x="110" y="60" width="180" height="30" as="geometry" />
        </mxCell>
        <mxCell id="hHR7pFkJkazH_EM8U-UJ-11" value="State" style="rounded=0;whiteSpace=wrap;html=1;" vertex="1" parent="1">
          <mxGeometry x="110" y="300" width="180" height="30" as="geometry" />
        </mxCell>
        <mxCell id="hHR7pFkJkazH_EM8U-UJ-85" style="edgeStyle=orthogonalEdgeStyle;rounded=0;orthogonalLoop=1;jettySize=auto;html=1;exitX=1;exitY=0.5;exitDx=0;exitDy=0;entryX=0;entryY=0.5;entryDx=0;entryDy=0;" edge="1" parent="1" source="hHR7pFkJkazH_EM8U-UJ-12" target="hHR7pFkJkazH_EM8U-UJ-26">
          <mxGeometry relative="1" as="geometry" />
        </mxCell>
        <mxCell id="hHR7pFkJkazH_EM8U-UJ-12" value="(FK) Mgr_Emp_No" style="rounded=0;whiteSpace=wrap;html=1;" vertex="1" parent="1">
          <mxGeometry x="110" y="360" width="180" height="30" as="geometry" />
        </mxCell>
        <mxCell id="hHR7pFkJkazH_EM8U-UJ-13" value="" style="whiteSpace=wrap;html=1;aspect=fixed;" vertex="1" parent="1">
          <mxGeometry x="640" y="505" width="180" height="180" as="geometry" />
        </mxCell>
        <mxCell id="hHR7pFkJkazH_EM8U-UJ-14" value="(PK) &lt;u&gt;Property_No&lt;/u&gt;" style="rounded=0;whiteSpace=wrap;html=1;" vertex="1" parent="1">
          <mxGeometry x="640" y="535" width="180" height="30" as="geometry" />
        </mxCell>
        <mxCell id="hHR7pFkJkazH_EM8U-UJ-87" style="edgeStyle=orthogonalEdgeStyle;rounded=0;orthogonalLoop=1;jettySize=auto;html=1;exitX=0;exitY=0.5;exitDx=0;exitDy=0;entryX=1;entryY=0.5;entryDx=0;entryDy=0;" edge="1" parent="1" source="hHR7pFkJkazH_EM8U-UJ-15" target="hHR7pFkJkazH_EM8U-UJ-26">
          <mxGeometry relative="1" as="geometry" />
        </mxCell>
        <mxCell id="hHR7pFkJkazH_EM8U-UJ-15" value="(FK) Emp_No" style="rounded=0;whiteSpace=wrap;html=1;" vertex="1" parent="1">
          <mxGeometry x="640" y="835" width="180" height="30" as="geometry" />
        </mxCell>
        <mxCell id="hHR7pFkJkazH_EM8U-UJ-16" value="Unit_No" style="rounded=0;whiteSpace=wrap;html=1;" vertex="1" parent="1">
          <mxGeometry x="640" y="595" width="180" height="30" as="geometry" />
        </mxCell>
        <mxCell id="hHR7pFkJkazH_EM8U-UJ-17" value="Street_No" style="rounded=0;whiteSpace=wrap;html=1;" vertex="1" parent="1">
          <mxGeometry x="640" y="625" width="180" height="30" as="geometry" />
        </mxCell>
        <mxCell id="hHR7pFkJkazH_EM8U-UJ-18" value="Street_Name" style="rounded=0;whiteSpace=wrap;html=1;" vertex="1" parent="1">
          <mxGeometry x="640" y="655" width="180" height="30" as="geometry" />
        </mxCell>
        <mxCell id="hHR7pFkJkazH_EM8U-UJ-19" value="Suburb" style="rounded=0;whiteSpace=wrap;html=1;" vertex="1" parent="1">
          <mxGeometry x="640" y="685" width="180" height="30" as="geometry" />
        </mxCell>
        <mxCell id="hHR7pFkJkazH_EM8U-UJ-20" value="Post_Code" style="rounded=0;whiteSpace=wrap;html=1;" vertex="1" parent="1">
          <mxGeometry x="640" y="745" width="180" height="30" as="geometry" />
        </mxCell>
        <mxCell id="hHR7pFkJkazH_EM8U-UJ-21" value="Type" style="rounded=0;whiteSpace=wrap;html=1;" vertex="1" parent="1">
          <mxGeometry x="640" y="565" width="180" height="30" as="geometry" />
        </mxCell>
        <mxCell id="hHR7pFkJkazH_EM8U-UJ-22" value="&lt;b&gt;Property&lt;/b&gt;" style="rounded=0;whiteSpace=wrap;html=1;" vertex="1" parent="1">
          <mxGeometry x="640" y="505" width="180" height="30" as="geometry" />
        </mxCell>
        <mxCell id="hHR7pFkJkazH_EM8U-UJ-23" value="State" style="rounded=0;whiteSpace=wrap;html=1;" vertex="1" parent="1">
          <mxGeometry x="640" y="715" width="180" height="30" as="geometry" />
        </mxCell>
        <mxCell id="hHR7pFkJkazH_EM8U-UJ-24" value="Weekly_Rent" style="rounded=0;whiteSpace=wrap;html=1;" vertex="1" parent="1">
          <mxGeometry x="640" y="805" width="180" height="30" as="geometry" />
        </mxCell>
        <mxCell id="hHR7pFkJkazH_EM8U-UJ-25" value="" style="whiteSpace=wrap;html=1;aspect=fixed;" vertex="1" parent="1">
          <mxGeometry x="370" y="50" width="180" height="180" as="geometry" />
        </mxCell>
        <mxCell id="hHR7pFkJkazH_EM8U-UJ-26" value="(PK) &lt;u&gt;Emp_No&lt;/u&gt;" style="rounded=0;whiteSpace=wrap;html=1;" vertex="1" parent="1">
          <mxGeometry x="370" y="80" width="180" height="30" as="geometry" />
        </mxCell>
        <mxCell id="hHR7pFkJkazH_EM8U-UJ-27" value="Tel_No" style="rounded=0;whiteSpace=wrap;html=1;" vertex="1" parent="1">
          <mxGeometry x="370" y="140" width="180" height="30" as="geometry" />
        </mxCell>
        <mxCell id="hHR7pFkJkazH_EM8U-UJ-28" value="Unit_No" style="rounded=0;whiteSpace=wrap;html=1;" vertex="1" parent="1">
          <mxGeometry x="370" y="170" width="180" height="30" as="geometry" />
        </mxCell>
        <mxCell id="hHR7pFkJkazH_EM8U-UJ-29" value="Street_No" style="rounded=0;whiteSpace=wrap;html=1;" vertex="1" parent="1">
          <mxGeometry x="370" y="200" width="180" height="30" as="geometry" />
        </mxCell>
        <mxCell id="hHR7pFkJkazH_EM8U-UJ-30" value="Street_Name" style="rounded=0;whiteSpace=wrap;html=1;" vertex="1" parent="1">
          <mxGeometry x="370" y="230" width="180" height="30" as="geometry" />
        </mxCell>
        <mxCell id="hHR7pFkJkazH_EM8U-UJ-31" value="Suburb" style="rounded=0;whiteSpace=wrap;html=1;" vertex="1" parent="1">
          <mxGeometry x="370" y="260" width="180" height="30" as="geometry" />
        </mxCell>
        <mxCell id="hHR7pFkJkazH_EM8U-UJ-32" value="Post_Code" style="rounded=0;whiteSpace=wrap;html=1;" vertex="1" parent="1">
          <mxGeometry x="370" y="320" width="180" height="30" as="geometry" />
        </mxCell>
        <mxCell id="hHR7pFkJkazH_EM8U-UJ-33" value="Name" style="rounded=0;whiteSpace=wrap;html=1;" vertex="1" parent="1">
          <mxGeometry x="370" y="110" width="180" height="30" as="geometry" />
        </mxCell>
        <mxCell id="hHR7pFkJkazH_EM8U-UJ-34" value="&lt;b&gt;Employee&lt;/b&gt;" style="rounded=0;whiteSpace=wrap;html=1;" vertex="1" parent="1">
          <mxGeometry x="370" y="50" width="180" height="30" as="geometry" />
        </mxCell>
        <mxCell id="hHR7pFkJkazH_EM8U-UJ-35" value="State" style="rounded=0;whiteSpace=wrap;html=1;" vertex="1" parent="1">
          <mxGeometry x="370" y="290" width="180" height="30" as="geometry" />
        </mxCell>
        <mxCell id="hHR7pFkJkazH_EM8U-UJ-36" value="Annual_Salary" style="rounded=0;whiteSpace=wrap;html=1;" vertex="1" parent="1">
          <mxGeometry x="370" y="350" width="180" height="30" as="geometry" />
        </mxCell>
        <mxCell id="hHR7pFkJkazH_EM8U-UJ-37" value="Supervisor_Emp_No" style="rounded=0;whiteSpace=wrap;html=1;" vertex="1" parent="1">
          <mxGeometry x="370" y="380" width="180" height="30" as="geometry" />
        </mxCell>
        <mxCell id="hHR7pFkJkazH_EM8U-UJ-84" style="edgeStyle=orthogonalEdgeStyle;rounded=0;orthogonalLoop=1;jettySize=auto;html=1;exitX=0;exitY=0.5;exitDx=0;exitDy=0;entryX=0;entryY=0.5;entryDx=0;entryDy=0;" edge="1" parent="1" source="hHR7pFkJkazH_EM8U-UJ-38" target="hHR7pFkJkazH_EM8U-UJ-2">
          <mxGeometry relative="1" as="geometry" />
        </mxCell>
        <mxCell id="hHR7pFkJkazH_EM8U-UJ-38" value="(FK) Branch_No" style="rounded=0;whiteSpace=wrap;html=1;" vertex="1" parent="1">
          <mxGeometry x="370" y="440" width="180" height="30" as="geometry" />
        </mxCell>
        <mxCell id="hHR7pFkJkazH_EM8U-UJ-40" value="Join_Date" style="rounded=0;whiteSpace=wrap;html=1;" vertex="1" parent="1">
          <mxGeometry x="370" y="410" width="180" height="30" as="geometry" />
        </mxCell>
        <mxCell id="hHR7pFkJkazH_EM8U-UJ-41" value="No_of_Rooms" style="rounded=0;whiteSpace=wrap;html=1;" vertex="1" parent="1">
          <mxGeometry x="640" y="775" width="180" height="30" as="geometry" />
        </mxCell>
        <mxCell id="hHR7pFkJkazH_EM8U-UJ-88" style="edgeStyle=orthogonalEdgeStyle;rounded=0;orthogonalLoop=1;jettySize=auto;html=1;exitX=1;exitY=0.5;exitDx=0;exitDy=0;entryX=0;entryY=0.5;entryDx=0;entryDy=0;" edge="1" parent="1" source="hHR7pFkJkazH_EM8U-UJ-42" target="hHR7pFkJkazH_EM8U-UJ-44">
          <mxGeometry relative="1" as="geometry" />
        </mxCell>
        <mxCell id="hHR7pFkJkazH_EM8U-UJ-42" value="(FK) Owner_No" style="rounded=0;whiteSpace=wrap;html=1;" vertex="1" parent="1">
          <mxGeometry x="640" y="865" width="180" height="30" as="geometry" />
        </mxCell>
        <mxCell id="hHR7pFkJkazH_EM8U-UJ-43" value="" style="whiteSpace=wrap;html=1;aspect=fixed;" vertex="1" parent="1">
          <mxGeometry x="900" y="860" width="150" height="150" as="geometry" />
        </mxCell>
        <mxCell id="hHR7pFkJkazH_EM8U-UJ-44" value="(PK) &lt;u&gt;Owner_No&lt;/u&gt;" style="rounded=0;whiteSpace=wrap;html=1;" vertex="1" parent="1">
          <mxGeometry x="900" y="890" width="180" height="30" as="geometry" />
        </mxCell>
        <mxCell id="hHR7pFkJkazH_EM8U-UJ-45" value="Tel_No" style="rounded=0;whiteSpace=wrap;html=1;" vertex="1" parent="1">
          <mxGeometry x="900" y="950" width="180" height="30" as="geometry" />
        </mxCell>
        <mxCell id="hHR7pFkJkazH_EM8U-UJ-46" value="Bank_Act_No" style="rounded=0;whiteSpace=wrap;html=1;" vertex="1" parent="1">
          <mxGeometry x="900" y="980" width="180" height="30" as="geometry" />
        </mxCell>
        <mxCell id="hHR7pFkJkazH_EM8U-UJ-49" value="Name" style="rounded=0;whiteSpace=wrap;html=1;" vertex="1" parent="1">
          <mxGeometry x="900" y="920" width="180" height="30" as="geometry" />
        </mxCell>
        <mxCell id="hHR7pFkJkazH_EM8U-UJ-50" value="&lt;b&gt;Owner&lt;/b&gt;" style="rounded=0;whiteSpace=wrap;html=1;" vertex="1" parent="1">
          <mxGeometry x="900" y="860" width="180" height="30" as="geometry" />
        </mxCell>
        <mxCell id="hHR7pFkJkazH_EM8U-UJ-52" value="" style="whiteSpace=wrap;html=1;aspect=fixed;" vertex="1" parent="1">
          <mxGeometry x="885" y="235" width="150" height="150" as="geometry" />
        </mxCell>
        <mxCell id="hHR7pFkJkazH_EM8U-UJ-53" value="(PK) &lt;u&gt;Renter_No&lt;/u&gt;" style="rounded=0;whiteSpace=wrap;html=1;" vertex="1" parent="1">
          <mxGeometry x="885" y="265" width="180" height="30" as="geometry" />
        </mxCell>
        <mxCell id="hHR7pFkJkazH_EM8U-UJ-54" value="Tel_No" style="rounded=0;whiteSpace=wrap;html=1;" vertex="1" parent="1">
          <mxGeometry x="885" y="325" width="180" height="30" as="geometry" />
        </mxCell>
        <mxCell id="hHR7pFkJkazH_EM8U-UJ-55" value="Pref_Accomo_Type" style="rounded=0;whiteSpace=wrap;html=1;" vertex="1" parent="1">
          <mxGeometry x="885" y="355" width="180" height="30" as="geometry" />
        </mxCell>
        <mxCell id="hHR7pFkJkazH_EM8U-UJ-56" value="Name" style="rounded=0;whiteSpace=wrap;html=1;" vertex="1" parent="1">
          <mxGeometry x="885" y="295" width="180" height="30" as="geometry" />
        </mxCell>
        <mxCell id="hHR7pFkJkazH_EM8U-UJ-57" value="&lt;b&gt;Renter&lt;/b&gt;" style="rounded=0;whiteSpace=wrap;html=1;" vertex="1" parent="1">
          <mxGeometry x="885" y="235" width="180" height="30" as="geometry" />
        </mxCell>
        <mxCell id="hHR7pFkJkazH_EM8U-UJ-58" value="Max_Weekly_Rent" style="rounded=0;whiteSpace=wrap;html=1;" vertex="1" parent="1">
          <mxGeometry x="885" y="385" width="180" height="30" as="geometry" />
        </mxCell>
        <mxCell id="hHR7pFkJkazH_EM8U-UJ-61" value="(PK) &lt;u&gt;Feature_Id&lt;/u&gt;" style="rounded=0;whiteSpace=wrap;html=1;" vertex="1" parent="1">
          <mxGeometry x="900" y="695" width="180" height="30" as="geometry" />
        </mxCell>
        <mxCell id="hHR7pFkJkazH_EM8U-UJ-64" value="Feature_Name" style="rounded=0;whiteSpace=wrap;html=1;" vertex="1" parent="1">
          <mxGeometry x="900" y="725" width="180" height="30" as="geometry" />
        </mxCell>
        <mxCell id="hHR7pFkJkazH_EM8U-UJ-65" value="&lt;b&gt;Features&lt;/b&gt;" style="rounded=0;whiteSpace=wrap;html=1;" vertex="1" parent="1">
          <mxGeometry x="900" y="665" width="180" height="30" as="geometry" />
        </mxCell>
        <mxCell id="hHR7pFkJkazH_EM8U-UJ-92" style="edgeStyle=orthogonalEdgeStyle;rounded=0;orthogonalLoop=1;jettySize=auto;html=1;exitX=0;exitY=0.5;exitDx=0;exitDy=0;entryX=1;entryY=0.5;entryDx=0;entryDy=0;" edge="1" parent="1" source="hHR7pFkJkazH_EM8U-UJ-68" target="hHR7pFkJkazH_EM8U-UJ-14">
          <mxGeometry relative="1" as="geometry" />
        </mxCell>
        <mxCell id="hHR7pFkJkazH_EM8U-UJ-68" value="(FK) Property_No (PK)" style="rounded=0;whiteSpace=wrap;html=1;fontStyle=4" vertex="1" parent="1">
          <mxGeometry x="900" y="535" width="180" height="30" as="geometry" />
        </mxCell>
        <mxCell id="hHR7pFkJkazH_EM8U-UJ-72" value="&lt;b&gt;Property_Features&lt;/b&gt;" style="rounded=0;whiteSpace=wrap;html=1;" vertex="1" parent="1">
          <mxGeometry x="900" y="505" width="180" height="30" as="geometry" />
        </mxCell>
        <mxCell id="hHR7pFkJkazH_EM8U-UJ-93" style="edgeStyle=orthogonalEdgeStyle;rounded=0;orthogonalLoop=1;jettySize=auto;html=1;exitX=0;exitY=0.5;exitDx=0;exitDy=0;entryX=0;entryY=0.5;entryDx=0;entryDy=0;" edge="1" parent="1" source="hHR7pFkJkazH_EM8U-UJ-74" target="hHR7pFkJkazH_EM8U-UJ-61">
          <mxGeometry relative="1" as="geometry" />
        </mxCell>
        <mxCell id="hHR7pFkJkazH_EM8U-UJ-74" value="(FK) Feature_Id (PK)" style="rounded=0;whiteSpace=wrap;html=1;fontStyle=4" vertex="1" parent="1">
          <mxGeometry x="900" y="565" width="180" height="30" as="geometry" />
        </mxCell>
        <mxCell id="hHR7pFkJkazH_EM8U-UJ-76" value="" style="whiteSpace=wrap;html=1;aspect=fixed;" vertex="1" parent="1">
          <mxGeometry x="640" y="230" width="150" height="150" as="geometry" />
        </mxCell>
        <mxCell id="hHR7pFkJkazH_EM8U-UJ-77" value="(PK) &lt;u&gt;Rental_Agreement_Id&lt;/u&gt;" style="rounded=0;whiteSpace=wrap;html=1;" vertex="1" parent="1">
          <mxGeometry x="640" y="260" width="180" height="30" as="geometry" />
        </mxCell>
        <mxCell id="hHR7pFkJkazH_EM8U-UJ-96" style="edgeStyle=orthogonalEdgeStyle;rounded=0;orthogonalLoop=1;jettySize=auto;html=1;exitX=1;exitY=0.5;exitDx=0;exitDy=0;entryX=0;entryY=0.5;entryDx=0;entryDy=0;" edge="1" parent="1" source="hHR7pFkJkazH_EM8U-UJ-78" target="hHR7pFkJkazH_EM8U-UJ-53">
          <mxGeometry relative="1" as="geometry" />
        </mxCell>
        <mxCell id="hHR7pFkJkazH_EM8U-UJ-78" value="(FK) Renter_No" style="rounded=0;whiteSpace=wrap;html=1;" vertex="1" parent="1">
          <mxGeometry x="640" y="320" width="180" height="30" as="geometry" />
        </mxCell>
        <mxCell id="hHR7pFkJkazH_EM8U-UJ-79" value="Weekly_Rent" style="rounded=0;whiteSpace=wrap;html=1;" vertex="1" parent="1">
          <mxGeometry x="640" y="350" width="180" height="30" as="geometry" />
        </mxCell>
        <mxCell id="hHR7pFkJkazH_EM8U-UJ-95" style="edgeStyle=orthogonalEdgeStyle;rounded=0;orthogonalLoop=1;jettySize=auto;html=1;exitX=0;exitY=0.5;exitDx=0;exitDy=0;entryX=0;entryY=0.5;entryDx=0;entryDy=0;" edge="1" parent="1" source="hHR7pFkJkazH_EM8U-UJ-80" target="hHR7pFkJkazH_EM8U-UJ-14">
          <mxGeometry relative="1" as="geometry" />
        </mxCell>
        <mxCell id="hHR7pFkJkazH_EM8U-UJ-80" value="(FK) Property_No" style="rounded=0;whiteSpace=wrap;html=1;" vertex="1" parent="1">
          <mxGeometry x="640" y="290" width="180" height="30" as="geometry" />
        </mxCell>
        <mxCell id="hHR7pFkJkazH_EM8U-UJ-81" value="&lt;b&gt;Rental_Agreement&lt;/b&gt;" style="rounded=0;whiteSpace=wrap;html=1;" vertex="1" parent="1">
          <mxGeometry x="640" y="230" width="180" height="30" as="geometry" />
        </mxCell>
        <mxCell id="hHR7pFkJkazH_EM8U-UJ-82" value="Start_Date" style="rounded=0;whiteSpace=wrap;html=1;" vertex="1" parent="1">
          <mxGeometry x="640" y="380" width="180" height="30" as="geometry" />
        </mxCell>
        <mxCell id="hHR7pFkJkazH_EM8U-UJ-83" value="End_Date" style="rounded=0;whiteSpace=wrap;html=1;" vertex="1" parent="1">
          <mxGeometry x="640" y="410" width="180" height="30" as="geometry" />
        </mxCell>
      </root>
    </mxGraphModel>
  </diagram>
</mxfile>
